<?xml version="1.0" encoding="iso-8859-1"?>
<!-- Uploaded to: SVG Repo, www.svgrepo.com, Generator: SVG Repo Mixer Tools -->
<svg height="800px" width="800px" version="1.1" id="Layer_1" xmlns="http://www.w3.org/2000/svg" xmlns:xlink="http://www.w3.org/1999/xlink" 
	 viewBox="0 0 503.607 503.607" xml:space="preserve">
<g transform="translate(1 1)">
	<g>
		<polygon style="fill:#FFE100;" points="234.016,494.213 267.59,494.213 267.59,443.852 234.016,443.852 		"/>
		<polygon style="fill:#FFE100;" points="292.77,443.852 208.836,443.852 200.443,343.131 301.164,343.131 		"/>
	</g>
	<polygon style="fill:#FFA800;" points="275.984,343.131 267.59,443.852 292.77,443.852 301.164,343.131 	"/>
	<g>
		<path style="fill:#FFE100;" d="M217.229,108.115h-33.574V24.18c0-9.233,7.554-16.787,16.787-16.787s16.787,7.554,16.787,16.787
			V108.115z"/>
		<path style="fill:#FFE100;" d="M317.951,108.115h-33.574V24.18c0-9.233,7.554-16.787,16.787-16.787s16.787,7.554,16.787,16.787
			V108.115z"/>
		<path style="fill:#FFE100;" d="M343.131,141.689H158.475c-9.233,0-16.787-7.554-16.787-16.787l0,0
			c0-9.233,7.554-16.787,16.787-16.787h184.656c9.233,0,16.787,7.554,16.787,16.787l0,0
			C359.918,134.134,352.364,141.689,343.131,141.689"/>
	</g>
	<path style="fill:#FFA800;" d="M343.131,108.115h-25.18c9.233,0,16.787,7.554,16.787,16.787s-7.554,16.787-16.787,16.787h25.18
		c9.233,0,16.787-7.554,16.787-16.787S352.364,108.115,343.131,108.115"/>
	<path style="fill:#FFE100;" d="M295.289,343.131h-88.97c-17.626,0-31.895-13.43-33.574-31.056l-14.269-170.387h184.656
		l-14.269,170.387C327.184,329.702,312.915,343.131,295.289,343.131"/>
	<path style="fill:#FFA800;" d="M323.826,141.689l-14.269,170.387c-1.679,17.626-15.948,31.056-33.574,31.056h25.18
		c17.626,0,31.895-13.43,33.574-31.056l14.269-170.387H323.826z"/>
	<path style="fill:#FFFFFF;" d="M177.78,141.689l14.269,170.387c1.679,17.626,15.948,31.056,33.574,31.056h-25.18
		c-17.626,0-31.895-13.43-33.574-31.056L152.6,141.689H177.78z"/>
	<path style="fill:#63D3FD;" d="M250.803,250.803L250.803,250.803c-27.698,0-50.361-22.662-50.361-50.361v-58.754h100.721v58.754
		C301.164,228.141,278.502,250.803,250.803,250.803"/>
	<path style="fill:#3DB9F9;" d="M275.984,141.689v58.754c0,23.502-15.948,42.807-37.77,48.682c4.197,0.839,8.393,1.679,12.59,1.679
		c27.698,0,50.361-22.662,50.361-50.361v-58.754H275.984z"/>
	<path d="M217.229,116.508h-33.574c-5.036,0-8.393-3.357-8.393-8.393V24.18c0-14.269,10.911-25.18,25.18-25.18
		s25.18,10.911,25.18,25.18v83.934C225.623,113.151,222.266,116.508,217.229,116.508z M192.049,99.721h16.787V24.18
		c0-5.036-3.357-8.393-8.393-8.393s-8.393,4.197-8.393,8.393V99.721z"/>
	<path d="M317.951,116.508h-33.574c-5.036,0-8.393-3.357-8.393-8.393V24.18c0-14.269,10.911-25.18,25.18-25.18
		s25.18,10.911,25.18,25.18v83.934C326.344,113.151,322.987,116.508,317.951,116.508z M292.77,99.721h16.787V24.18
		c0-5.036-3.357-8.393-8.393-8.393s-8.393,3.357-8.393,8.393V99.721z"/>
	<path d="M267.59,502.607h-33.574c-5.036,0-8.393-3.357-8.393-8.393v-50.361c0-5.036,3.357-8.393,8.393-8.393h33.574
		c5.036,0,8.393,3.357,8.393,8.393v50.361C275.984,499.249,272.626,502.607,267.59,502.607z M242.41,485.82h16.787v-33.574H242.41
		V485.82z"/>
	<path d="M234.016,385.098h-31.056c-5.036,0-8.393-3.357-8.393-8.393s3.357-8.393,8.393-8.393h31.056
		c5.036,0,8.393,3.357,8.393,8.393S239.052,385.098,234.016,385.098z"/>
	<path d="M298.646,385.098H267.59c-5.036,0-8.393-3.357-8.393-8.393s3.357-8.393,8.393-8.393h31.056
		c5.036,0,8.393,3.357,8.393,8.393S302.843,385.098,298.646,385.098z"/>
	<path d="M234.016,418.672h-27.698c-5.036,0-8.393-3.357-8.393-8.393c0-5.036,3.357-8.393,8.393-8.393h27.698
		c5.036,0,8.393,3.357,8.393,8.393C242.41,415.315,239.052,418.672,234.016,418.672z"/>
	<path d="M295.289,418.672H267.59c-5.036,0-8.393-3.357-8.393-8.393c0-5.036,3.357-8.393,8.393-8.393h27.698
		c5.036,0,8.393,3.357,8.393,8.393C303.682,415.315,300.325,418.672,295.289,418.672z"/>
	<path d="M292.77,452.246h-83.934c-4.197,0-8.393-3.357-8.393-7.554l-8.393-100.721c0-2.518,0.839-5.036,2.518-6.715
		c1.679-1.679,3.357-2.518,5.875-2.518h100.721c2.518,0,4.197,0.839,5.875,2.518c1.679,1.679,2.518,4.197,2.518,6.715
		l-8.393,100.721C301.164,448.888,296.967,452.246,292.77,452.246z M216.39,435.459h68.826l6.715-83.934h-82.256L216.39,435.459z"/>
	<path d="M343.131,150.082H158.475c-14.269,0-25.18-10.911-25.18-25.18s10.911-25.18,25.18-25.18h184.656
		c14.269,0,25.18,10.911,25.18,25.18S357.4,150.082,343.131,150.082z M158.475,116.508c-5.036,0-8.393,3.357-8.393,8.393
		c0,5.036,3.357,8.393,8.393,8.393h184.656c5.036,0,8.393-3.357,8.393-8.393c0-5.036-3.357-8.393-8.393-8.393H158.475z"/>
	<path d="M295.289,351.525h-88.97c-21.823,0-40.289-16.787-41.967-38.61l-14.269-170.387c0-2.518,0.839-5.036,2.518-6.715
		c1.679-1.679,3.357-2.518,5.875-2.518h184.656c2.518,0,4.197,0.839,5.875,2.518c1.679,1.679,2.518,4.197,2.518,6.715
		l-14.269,170.387C335.577,334.738,317.111,351.525,295.289,351.525z M167.708,150.082l13.43,161.154
		c0.839,13.43,11.751,23.502,25.18,23.502h88.97c13.43,0,24.341-10.072,25.18-23.502l13.43-161.154H167.708z"/>
	<path d="M250.803,259.197c-32.734,0-58.754-26.02-58.754-58.754v-58.754c0-5.036,3.357-8.393,8.393-8.393h100.721
		c5.036,0,8.393,3.357,8.393,8.393v58.754C309.557,233.177,283.538,259.197,250.803,259.197z M208.836,150.082v50.361
		c0,23.502,18.466,41.967,41.967,41.967s41.967-18.466,41.967-41.967v-50.361H208.836z"/>
	<path d="M385.098,502.607h-268.59c-5.036,0-8.393-3.357-8.393-8.393c0-5.036,3.357-8.393,8.393-8.393h268.59
		c5.036,0,8.393,3.357,8.393,8.393C393.492,499.249,390.134,502.607,385.098,502.607z"/>
</g>
</svg>