<?xml version="1.0" encoding="iso-8859-1"?>
<!-- Uploaded to: SVG Repo, www.svgrepo.com, Generator: SVG Repo Mixer Tools -->
<svg height="800px" width="800px" version="1.1" id="Layer_1" xmlns="http://www.w3.org/2000/svg" xmlns:xlink="http://www.w3.org/1999/xlink" 
	 viewBox="0 0 512 512" xml:space="preserve">
<g transform="translate(1)">
	<path style="fill:#FFE100;" d="M357.4,51.2h-83.627c-4.267,5.12-11.093,8.533-18.773,8.533c-7.68,0-14.507-3.413-18.773-8.533
		H152.6c-30.72,68.267-44.373,112.64-25.6,213.333c18.773,102.4,34.133,213.333,34.133,213.333s34.133,25.6,93.867,25.6
		s93.867-25.6,93.867-25.6S364.227,366.933,383,264.533C401.773,163.84,388.12,119.467,357.4,51.2"/>
	<path style="fill:#63D3FD;" d="M280.6,34.133c0-14.507-11.093-25.6-25.6-25.6c-14.507,0-25.6,11.093-25.6,25.6
		s11.093,25.6,25.6,25.6S280.6,48.64,280.6,34.133"/>
	<g>
		<path style="fill:#FDCC00;" d="M280.6,34.133c0,6.827-2.56,12.8-6.827,17.067H357.4l-17.067-34.133h-66.56
			C278.04,21.333,280.6,27.307,280.6,34.133"/>
		<path style="fill:#FDCC00;" d="M229.4,34.133c0-6.827,2.56-12.8,6.827-17.067h-66.56L152.6,51.2h42.667h40.96
			C231.96,46.933,229.4,40.96,229.4,34.133"/>
	</g>
	<g>
		<path style="fill:#FFA800;" d="M357.4,51.2h-25.6c30.72,68.267,44.373,112.64,25.6,213.333
			c-18.773,102.4-34.133,213.333-34.133,213.333s-29.013,22.187-81.067,24.747c4.267,0,8.533,0.853,12.8,0.853
			c59.733,0,93.867-25.6,93.867-25.6S364.227,366.933,383,264.533C401.773,163.84,388.12,119.467,357.4,51.2"/>
		<polygon style="fill:#FFA800;" points="340.333,17.067 314.733,17.067 331.8,51.2 357.4,51.2 		"/>
	</g>
	<g>
		<path style="fill:#FFFFFF;" d="M152.6,51.2h25.6c-30.72,68.267-44.373,112.64-25.6,213.333
			c18.773,102.4,34.133,213.333,34.133,213.333s29.013,22.187,81.067,24.747c-4.267,0.853-8.533,0.853-12.8,0.853
			c-59.733,0-93.867-25.6-93.867-25.6S145.773,366.933,127,264.533C108.227,163.84,121.88,119.467,152.6,51.2"/>
		<polygon style="fill:#FFFFFF;" points="169.667,17.067 195.267,17.067 178.2,51.2 152.6,51.2 		"/>
	</g>
	<path style="fill:#FDCC00;" d="M327.533,488.96l-29.867-173.227l-23.893,186.88C296.813,500.053,314.733,494.933,327.533,488.96"/>
	<path d="M255,68.267c-18.773,0-34.133-15.36-34.133-34.133S236.227,0,255,0s34.133,15.36,34.133,34.133S273.773,68.267,255,68.267z
		 M255,17.067c-9.387,0-17.067,7.68-17.067,17.067S245.613,51.2,255,51.2s17.067-7.68,17.067-17.067S264.387,17.067,255,17.067z"/>
	<path d="M357.4,59.733h-83.627c-3.413,0-6.827-1.707-7.68-5.12c-1.707-3.413-0.853-6.827,1.707-9.387
		c1.707-1.707,4.267-5.973,4.267-11.093s-2.56-9.387-4.267-11.093c-2.56-2.56-2.56-5.973-1.707-9.387
		c1.707-3.413,4.267-5.12,7.68-5.12h66.56c3.413,0,5.973,1.707,7.68,5.12l17.067,34.133c1.707,2.56,0.853,5.973,0,8.533
		C363.373,58.027,359.96,59.733,357.4,59.733z M288.28,42.667h55.467L335.213,25.6H288.28c0.853,2.56,0.853,5.973,0.853,8.533
		S289.133,40.107,288.28,42.667z"/>
	<path d="M236.227,59.733H152.6c-2.56,0-5.973-1.707-7.68-4.267c-0.853-2.56-0.853-5.12,0-8.533L161.987,12.8
		c1.707-2.56,4.267-4.267,7.68-4.267h66.56c3.413,0,6.827,1.707,7.68,5.12s0.853,6.827-1.707,9.387
		c-1.707,1.707-4.267,5.973-4.267,11.093s2.56,9.387,4.267,11.093c2.56,2.56,2.56,5.973,1.707,9.387S239.64,59.733,236.227,59.733z
		 M166.253,42.667h55.467c-0.853-2.56-0.853-5.973-0.853-8.533s0-5.973,0.853-8.533h-46.933L166.253,42.667z"/>
	<path d="M255,512c-62.293,0-97.28-26.453-98.987-27.307c-1.707-1.707-3.413-3.413-3.413-5.973c0-0.853-15.36-111.787-34.133-212.48
		c-18.773-102.4-5.973-147.627,26.453-218.453c1.707-3.413,4.267-5.12,7.68-5.12h83.627c2.56,0,5.12,0.853,5.973,2.56
		c6.827,7.68,18.773,7.68,25.6,0c1.707-1.707,3.413-2.56,5.973-2.56H357.4c3.413,0,6.827,1.707,7.68,5.12
		c32.427,70.827,45.227,116.053,26.453,218.453C372.76,366.933,357.4,477.867,357.4,479.573c0,2.56-1.707,4.267-3.413,5.973
		C352.28,485.547,317.293,512,255,512z M168.813,472.747c9.387,5.973,39.253,22.187,86.187,22.187s76.8-16.213,86.187-22.187
		c2.56-20.48,17.067-119.467,33.28-209.92c17.92-95.573,5.973-138.24-23.04-203.093h-74.24c-12.8,11.093-32.427,11.093-45.227,0
		h-74.24c-28.16,64.853-40.107,107.52-22.187,203.093C151.747,353.28,166.253,452.267,168.813,472.747z"/>
	<path d="M273.773,511.147c-2.56,0-4.267-0.853-5.973-2.56c-1.707-1.707-2.56-4.267-2.56-6.827l23.893-186.88
		c0.853-4.267,4.267-7.68,8.533-7.68s7.68,2.56,8.533,6.827l29.867,174.08c0.853,4.267-1.707,7.68-5.12,9.387
		C313.88,504.32,294.253,509.44,273.773,511.147L273.773,511.147z M298.52,372.907l-15.36,119.467
		c13.653-1.707,25.6-5.12,34.133-8.533L298.52,372.907z"/>
</g>
</svg>