<?xml version="1.0" encoding="iso-8859-1"?>
<!-- Uploaded to: SVG Repo, www.svgrepo.com, Generator: SVG Repo Mixer Tools -->
<svg height="800px" width="800px" version="1.1" id="Layer_1" xmlns="http://www.w3.org/2000/svg" xmlns:xlink="http://www.w3.org/1999/xlink" 
	 viewBox="0 0 512 512" xml:space="preserve">
<g transform="translate(1 1)">
	<g>
		<path style="fill:#FFE100;" d="M348.867,502.467l25.6-460.8H255V178.2c9.387,0,17.067,7.68,17.92,17.067l16.213,307.2H348.867z"/>
		<path style="fill:#FFE100;" d="M220.867,502.467l17.067-307.2c0-9.387,7.68-17.067,17.067-17.067V41.667H135.533l25.6,460.8
			L220.867,502.467L220.867,502.467z"/>
	</g>
	<polygon style="fill:#FDCC00;" points="135.533,41.667 374.467,41.667 374.467,7.533 135.533,7.533 	"/>
	<polygon style="fill:#FFA800;" points="357.4,41.667 374.467,41.667 374.467,7.533 357.4,7.533 	"/>
	<g>
		<path style="fill:#FDCC00;" d="M138.947,99.693c22.187-5.12,39.253-25.6,39.253-49.493c0-2.56,0-5.973-0.853-8.533h-41.813
			L138.947,99.693z"/>
		<path style="fill:#FDCC00;" d="M371.053,99.693c-22.187-5.12-39.253-25.6-39.253-49.493c0-2.56,0-5.973,0.853-8.533h41.813
			L371.053,99.693z"/>
	</g>
	<polygon style="fill:#FFA800;" points="357.4,41.667 331.8,502.467 348.867,502.467 374.467,41.667 	"/>
	<g>
		<polygon style="fill:#FFFFFF;" points="135.533,41.667 152.6,41.667 152.6,7.533 135.533,7.533 		"/>
		<polygon style="fill:#FFFFFF;" points="152.6,41.667 178.2,502.467 161.133,502.467 135.533,41.667 		"/>
	</g>
	<path d="M374.467,50.2H135.533c-5.12,0-8.533-3.413-8.533-8.533V7.533C127,2.413,130.413-1,135.533-1h238.933
		C379.587-1,383,2.413,383,7.533v34.133C383,46.787,379.587,50.2,374.467,50.2z M144.067,33.133h221.867V16.067H144.067V33.133z"/>
	<path d="M348.867,511h-59.733c-4.267,0-8.533-3.413-8.533-7.68l-16.213-307.2c0-5.12-4.267-9.387-9.387-9.387
		s-8.533-3.413-8.533-8.533V41.667c0-5.12,3.413-8.533,8.533-8.533h119.467c2.56,0,4.267,0.853,5.973,2.56
		C382.147,37.4,383,39.96,383,42.52l-25.6,460.8C357.4,507.587,353.133,511,348.867,511z M296.813,493.933h43.52L365.08,50.2
		H263.533v121.173c10.24,3.413,17.067,12.8,17.92,23.893L296.813,493.933z"/>
	<path d="M220.867,511h-59.733c-4.267,0-8.533-3.413-8.533-7.68L127,42.52c0-2.56,0.853-4.267,2.56-5.973
		c1.707-2.56,3.413-3.413,5.973-3.413H255c5.12,0,8.533,3.413,8.533,8.533V178.2c0,5.12-3.413,8.533-8.533,8.533
		s-8.533,3.413-8.533,8.533l-17.067,307.2C229.4,507.587,225.133,511,220.867,511z M168.813,493.933h43.52l17.067-299.52
		c0-11.093,7.68-20.48,17.067-23.893V50.2H144.92L168.813,493.933z"/>
	<path d="M138.947,108.227c-1.707,0-3.413-0.853-5.12-1.707c-1.707-1.707-3.413-3.413-3.413-5.973L127,42.52
		c0-2.56,0.853-4.267,2.56-5.973c1.707-1.707,3.413-3.413,5.973-3.413h41.813c4.267,0,7.68,3.413,8.533,6.827
		c0.853,3.413,0.853,6.827,0.853,10.24c0,28.16-18.773,52.053-46.08,58.027C139.8,108.227,139.8,108.227,138.947,108.227z
		 M144.92,50.2l1.707,37.547c13.653-6.827,23.04-21.333,23.04-37.547H144.92z"/>
	<path d="M371.053,108.227c-0.853,0-1.707,0-1.707,0c-27.307-5.973-46.08-29.867-46.08-58.027c0-3.413,0-5.973,0.853-10.24
		s4.267-6.827,8.533-6.827h41.813c2.56,0,4.267,0.853,5.973,2.56C382.147,37.4,383,39.96,383,42.52l-3.413,58.027
		c0,2.56-1.707,5.12-3.413,5.973C374.467,108.227,372.76,108.227,371.053,108.227z M340.333,50.2c0,16.213,9.387,30.72,23.04,37.547
		L365.08,50.2H340.333z"/>
	<path d="M203.8,323.267h-25.6c-5.12,0-8.533-3.413-8.533-8.533s3.413-8.533,8.533-8.533h25.6c5.12,0,8.533,3.413,8.533,8.533
		C212.333,319.853,208.92,323.267,203.8,323.267z"/>
	<path d="M331.8,323.267h-25.6c-5.12,0-8.533-3.413-8.533-8.533s3.413-8.533,8.533-8.533h25.6c5.12,0,8.533,3.413,8.533,8.533
		C340.333,319.853,336.92,323.267,331.8,323.267z"/>
	<path d="M340.333,186.733H306.2c-5.12,0-8.533-3.413-8.533-8.533c0-5.12,3.413-8.533,8.533-8.533h34.133
		c5.12,0,8.533,3.413,8.533,8.533C348.867,183.32,345.453,186.733,340.333,186.733z"/>
	<path d="M203.8,186.733h-34.133c-5.12,0-8.533-3.413-8.533-8.533c0-5.12,3.413-8.533,8.533-8.533H203.8
		c5.12,0,8.533,3.413,8.533,8.533C212.333,183.32,208.92,186.733,203.8,186.733z"/>
</g>
</svg>